<?xml version="1.0" encoding="UTF-8"?>
<!-- Generator: Adobe Illustrator 27.0.1, SVG Export Plug-In . SVG Version: 6.00 Build 0)  -->
<svg xmlns="http://www.w3.org/2000/svg" xmlns:xlink="http://www.w3.org/1999/xlink" version="1.1" id="Layer_1" x="0px" y="0px" viewBox="0 0 841.89 192.24" style="enable-background:new 0 0 841.89 192.24;" xml:space="preserve">
<style type="text/css">
	.st0{fill:#000000;}
	.st1{fill:#F2971F;}
	.st2{fill:#000000;}
</style>
<g>
	<g>
		<path class="st0" d="M227.02,95.31c2.61,1.47,6.35,2.78,11.22,3.91c4.88,1.14,9.87,1.71,14.97,1.71c4.99,0,9.59-0.63,13.78-1.87    c4.19-1.24,7.8-3.07,10.81-5.45c3-2.38,5.36-5.23,7.06-8.58c1.7-3.34,2.55-7.12,2.55-11.31c0-5.11-1.51-9.64-4.52-13.61    c-3.01-3.97-8.03-7.08-15.06-9.35l-13.78-4.42c-5.21-1.71-8.79-3.49-10.71-5.36c-1.93-1.87-2.89-4.17-2.89-6.89    c0-3.98,1.53-6.87,4.6-8.68c3.05-1.81,7.37-2.73,12.93-2.73c6.91,0,13.16,1.25,18.71,3.75c1.7,0.79,2.95,1.19,3.74,1.19    c1.47,0,2.21-1.03,2.21-3.07v-4.59c0-1.36-0.28-2.44-0.84-3.23c-0.58-0.8-1.54-1.59-2.89-2.39c-1.03-0.56-2.38-1.13-4.09-1.7    c-1.71-0.57-3.55-1.08-5.53-1.53c-1.98-0.46-4.08-0.83-6.29-1.11c-2.22-0.29-4.4-0.42-6.55-0.42c-4.32,0-8.4,0.57-12.26,1.7    c-3.85,1.14-7.23,2.81-10.12,5.02c-2.9,2.22-5.22,4.88-6.98,8c-1.76,3.12-2.64,6.72-2.64,10.8c0,5.11,1.62,9.81,4.86,14.12    c3.23,4.32,8.41,7.6,15.56,9.87l14.11,4.42c4.77,1.59,8.04,3.29,9.79,5.11c1.75,1.82,2.63,4.08,2.63,6.81    c0,3.96-1.67,7.03-5.02,9.18c-3.34,2.15-8.07,3.23-14.2,3.23c-3.85,0-7.71-0.39-11.57-1.19c-3.85-0.8-7.42-1.94-10.71-3.41    c-1.02-0.44-1.85-0.78-2.47-1.01c-0.63-0.23-1.22-0.34-1.79-0.34c-1.47,0-2.21,1.01-2.21,3.05v4.93c0,0.92,0.2,1.82,0.6,2.73    C224.43,93.5,225.44,94.41,227.02,95.31"></path>
		<path class="st0" d="M62.59,48.1c-3.57-0.51-7-0.76-10.29-0.76c-9.97,0-17.92,2.52-23.82,7.57c-5.9,5.04-8.84,11.71-8.84,19.99    c0,7.81,2.38,14.07,7.15,18.71c4.76,4.64,11.22,6.98,19.39,6.98c11.45,0,20.98-4.48,28.58-13.45c1.02,2.17,2.01,4.07,2.98,5.7    c0.96,1.65,2.13,3.15,3.49,4.51c0.91,0.91,1.87,1.37,2.89,1.37c0.8,0,1.65-0.29,2.55-0.85l6.13-4.09c1.24-0.92,1.87-1.87,1.87-2.9    c0-0.67-0.23-1.42-0.67-2.21c-1.37-2.5-2.42-4.83-3.15-6.98c-0.74-2.15-1.11-5.05-1.11-8.67V41.39c0-10.67-2.7-18.63-8.08-23.9    c-5.4-5.27-13.86-7.9-25.43-7.9c-5.34,0-10.39,0.62-15.16,1.86c-4.76,1.25-8.84,2.73-12.24,4.43c-1.37,0.67-2.27,1.35-2.73,2.04    c-0.45,0.67-0.68,1.81-0.68,3.39v4.76c0,2.04,0.68,3.07,2.04,3.07c0.34,0,0.85-0.09,1.53-0.26c0.68-0.16,1.81-0.6,3.4-1.27    c3.4-1.37,6.89-2.48,10.46-3.32c3.57-0.84,7.06-1.27,10.46-1.27c7.49,0,12.76,1.5,15.82,4.51c3.06,3.01,4.6,8.19,4.6,15.56v7.15    C69.89,49.33,66.17,48.62,62.59,48.1 M73.74,65.2c0,3.29-0.31,6.1-0.93,8.42c-0.64,2.33-1.73,4.4-3.31,6.21    c-2.61,2.95-5.67,5.02-9.19,6.2c-3.52,1.19-6.86,1.79-10.04,1.79c-4.42,0-7.82-1.17-10.2-3.49c-2.38-2.33-3.57-5.76-3.57-10.3    c0-4.87,1.59-8.61,4.77-11.22c3.17-2.61,7.99-3.91,14.45-3.91c2.95,0,5.98,0.19,9.1,0.6c3.11,0.39,6.09,0.93,8.93,1.61V65.2z"></path>
		<path class="st0" d="M122.56,93.61c0.57,1.94,1.24,3.21,2.04,3.82c0.8,0.63,2.04,0.93,3.75,0.93h8.33c1.81,0,3.11-0.34,3.91-1.01    c0.79-0.68,1.42-1.99,1.87-3.92l14.97-62.6l15.14,62.6c0.45,1.93,1.08,3.24,1.88,3.92c0.79,0.67,2.09,1.01,3.91,1.01h8.32    c1.71,0,2.96-0.31,3.75-0.93c0.8-0.62,1.47-1.89,2.04-3.82l23.47-75.2c0.36-1.01,0.57-1.81,0.69-2.38    c0.11-0.57,0.16-1.07,0.16-1.53c0-1.58-0.79-2.38-2.38-2.38h-9.02c-1.82,0-3.09,0.32-3.82,0.93c-0.74,0.63-1.39,1.91-1.96,3.82    l-16.84,65.16l-15.32-65.16c-0.44-1.92-1.08-3.2-1.87-3.82c-0.79-0.62-2.09-0.93-3.9-0.93h-7.83c-1.81,0-3.12,0.32-3.91,0.93    c-0.8,0.63-1.42,1.91-1.87,3.82l-15.15,64.31l-16.33-64.31c-0.57-1.92-1.21-3.2-1.96-3.82c-0.74-0.62-2.01-0.93-3.83-0.93h-9.52    c-1.59,0-2.38,0.8-2.38,2.38c0,0.68,0.28,1.99,0.85,3.91L122.56,93.61z"></path>
		<path class="st1" d="M266.95,140.72c-35.88,15.22-74.88,22.58-110.35,22.58c-52.59,0-103.5-14.43-144.66-38.39    c-3.61-2.08-6.28,1.61-3.29,4.32c38.15,34.45,88.59,55.15,144.58,55.15c39.95,0,86.36-12.55,118.37-36.17    C276.89,144.29,272.36,138.43,266.95,140.72"></path>
		<path class="st1" d="M246.75,127.41c-2.82,1.98-2.33,4.71,0.8,4.34c10.31-1.24,33.28-4,37.37,1.24c4.09,5.25-4.56,26.85-8.42,36.5    c-1.17,2.92,1.35,4.1,3.99,1.89c17.17-14.36,21.61-44.45,18.09-48.81C295.09,118.25,265.07,114.55,246.75,127.41"></path>
	</g>
	<g>
		<g>
			<path class="st2" d="M361.8,5.9h7.64V33.4c0,5.43-1.5,9.61-4.51,12.56c-3.01,2.94-7.33,4.41-12.97,4.41     c-5.64,0-9.96-1.47-12.96-4.41c-3.01-2.94-4.51-7.13-4.51-12.56V5.9h7.64v27.99c0,3.26,0.84,5.76,2.5,7.49     c1.67,1.73,4.11,2.6,7.33,2.6c3.22,0,5.66-0.87,7.33-2.6c1.67-1.73,2.51-4.23,2.51-7.49V5.9z"></path>
			<path class="st2" d="M393.3,40.66c0-0.92-0.29-1.66-0.88-2.23c-0.58-0.56-1.68-1.14-3.27-1.72l-5.22-2.01     c-4.69-1.8-7.04-4.72-7.04-8.77c0-2.92,1.09-5.23,3.26-6.92c2.17-1.69,5.07-2.54,8.71-2.54c3.46,0,6.59,0.67,9.39,2.01v5.2     c-3.27-1.04-6.27-1.57-8.99-1.57c-1.93,0-3.34,0.28-4.25,0.85c-0.9,0.56-1.35,1.45-1.35,2.66c0,0.92,0.32,1.66,0.97,2.23     c0.65,0.56,1.81,1.18,3.49,1.85l4.84,1.88c2.51,0.96,4.33,2.11,5.44,3.44c1.11,1.34,1.67,3.03,1.67,5.07     c0,3.13-1.12,5.6-3.38,7.42c-2.25,1.82-5.38,2.72-9.39,2.72c-1.96,0-3.88-0.21-5.76-0.63c-1.88-0.42-3.53-1-4.95-1.75v-5.2     c4.03,1.3,7.59,1.94,10.69,1.94c2.1,0,3.63-0.32,4.59-0.97C392.82,42.99,393.3,42,393.3,40.66z"></path>
			<path class="st2" d="M412.09,35.15c0.12,3.17,0.98,5.5,2.57,6.98c1.59,1.48,4.05,2.23,7.36,2.23c2.98,0,6.21-0.58,9.68-1.75v5.2     c-1.42,0.75-3.1,1.35-5.04,1.79c-1.94,0.44-3.96,0.66-6.04,0.66c-5.26,0-9.25-1.42-11.96-4.26c-2.71-2.84-4.07-6.97-4.07-12.4     c0-5.38,1.33-9.58,3.98-12.59c2.65-3.01,6.36-4.51,11.12-4.51c4.09,0,7.23,1.12,9.43,3.35c2.19,2.24,3.29,5.4,3.29,9.49     c0,2.17-0.18,4.11-0.55,5.83H412.09z M419.63,21.87c-2.14,0-3.88,0.75-5.23,2.25c-1.35,1.5-2.12,3.53-2.32,6.08h13.72v-0.5     c0-2.55-0.52-4.49-1.57-5.82C423.18,22.54,421.65,21.87,419.63,21.87z"></path>
			<path class="st2" d="M439.58,49.3V17.42h6.14l1,4.76c1.67-1.84,3.24-3.13,4.7-3.88c1.46-0.75,3.04-1.12,4.76-1.12     c0.79,0,1.65,0.06,2.57,0.19v6.76c-1.17-0.21-2.36-0.31-3.57-0.31c-3.09,0-5.82,0.79-8.21,2.38V49.3H439.58z"></path>
			<path class="st2" d="M501.34,43.6c2.01,0,3.97-0.19,5.89-0.56V31.58h-8.96v-6.01h16.6v21.3c-1.91,1-4.14,1.79-6.7,2.35     c-2.56,0.56-5.2,0.84-7.91,0.84c-6.94,0-12.24-1.9-15.88-5.7c-3.64-3.8-5.46-9.29-5.46-16.47c0-7.31,1.87-12.91,5.62-16.82     c3.75-3.9,9.14-5.86,16.18-5.86c4.75,0,8.96,0.86,12.65,2.57v6.08c-4.38-1.46-8.43-2.19-12.13-2.19c-4.93,0-8.59,1.25-10.98,3.76     s-3.57,6.41-3.57,11.71v1.32c0,5.22,1.18,9.05,3.54,11.49C492.58,42.38,496.29,43.6,501.34,43.6z"></path>
			<path class="st2" d="M523.26,49.3V17.42h6.14l1,4.76c1.67-1.84,3.24-3.13,4.7-3.88c1.46-0.75,3.04-1.12,4.76-1.12     c0.79,0,1.65,0.06,2.57,0.19v6.76c-1.17-0.21-2.36-0.31-3.57-0.31c-3.09,0-5.82,0.79-8.21,2.38V49.3H523.26z"></path>
			<path class="st2" d="M561.21,50.24c-4.84,0-8.62-1.49-11.34-4.48c-2.71-2.98-4.07-7.13-4.07-12.43c0-5.3,1.36-9.44,4.07-12.4     s6.49-4.45,11.34-4.45s8.62,1.48,11.34,4.45c2.71,2.97,4.07,7.1,4.07,12.4c0,5.3-1.36,9.45-4.07,12.43     C569.83,48.75,566.05,50.24,561.21,50.24z M561.21,44.42c5.26,0,7.89-3.69,7.89-11.08c0-7.35-2.63-11.03-7.89-11.03     c-5.26,0-7.89,3.68-7.89,11.03C553.32,40.72,555.95,44.42,561.21,44.42z"></path>
			<path class="st2" d="M605.43,49.3l-0.75-3.51c-3.93,2.97-7.83,4.45-11.71,4.45c-2.97,0-5.25-0.83-6.86-2.47     c-1.61-1.65-2.41-4.02-2.41-7.11V17.42h7.39v21.04c0,2.05,0.42,3.55,1.25,4.51c0.84,0.96,2.17,1.44,4.01,1.44     c2.59,0,5.2-0.86,7.83-2.57V17.42h7.39V49.3H605.43z"></path>
			<path class="st2" d="M620.59,62.2V17.42h6.14l0.69,3.2c1.46-1.33,3.08-2.36,4.85-3.07c1.78-0.71,3.62-1.07,5.54-1.07     c3.97,0,7.13,1.48,9.49,4.45c2.36,2.97,3.54,6.95,3.54,11.96c0,3.34-0.54,6.3-1.63,8.86c-1.09,2.57-2.65,4.58-4.7,6.04     c-2.05,1.46-4.44,2.19-7.2,2.19c-1.75,0-3.45-0.3-5.07-0.91c-1.63-0.61-3.05-1.45-4.26-2.54V62.2H620.59z M635.49,22.31     c-2.71,0-5.22,0.79-7.52,2.38v17.04c2.34,1.63,4.82,2.44,7.45,2.44c2.67,0,4.66-0.91,5.95-2.72s1.94-4.58,1.94-8.3     c0-3.67-0.64-6.4-1.91-8.17S638.16,22.31,635.49,22.31z"></path>
		</g>
		<g>
			<path class="st2" d="M333.78,153.92V60.43h61.52v15.65h-41.28v22.12h33.59v15.65h-33.59v24.42h41.28v15.65H333.78z"></path>
			<path class="st2" d="M458.83,150.95c-2.43,1.44-5.35,2.54-8.77,3.31c-3.42,0.76-6.97,1.15-10.66,1.15     c-10.97,0-19.36-3.05-25.16-9.17c-5.8-6.12-8.7-14.93-8.7-26.44c0-11.42,3.06-20.33,9.18-26.71c6.11-6.39,14.61-9.58,25.5-9.58     c6.56,0,12.64,1.44,18.21,4.32v13.08c-5.31-1.53-10.16-2.29-14.57-2.29c-6.3,0-10.93,1.6-13.9,4.79     c-2.97,3.19-4.45,8.25-4.45,15.17v1.89c0,6.84,1.46,11.85,4.38,15.04c2.92,3.2,7.44,4.79,13.56,4.79c4.41,0,9.53-0.81,15.38-2.43     V150.95z"></path>
			<path class="st2" d="M518.73,153.92l-1.89-7.29c-8.01,6.21-16.37,9.31-25.09,9.31c-6.12,0-10.88-1.82-14.3-5.46     c-3.42-3.64-5.13-8.66-5.13-15.04V84.99h19.7v44.92c0,7.29,3.15,10.93,9.44,10.93c4.68,0,9.26-1.44,13.76-4.32V84.99h19.7v68.94     H518.73z"></path>
			<path class="st2" d="M593.33,153.92l-1.62-6.07c-2.79,2.52-6,4.52-9.65,6c-3.64,1.49-7.17,2.23-10.59,2.23     c-6.66,0-11.99-1.89-15.99-5.67c-4-3.78-6-8.81-6-15.11c0-4.32,1.08-8.12,3.24-11.4c2.16-3.28,5.26-5.87,9.31-7.76     c4.05-1.89,8.81-2.83,14.3-2.83c4.31,0,9.08,0.58,14.3,1.75v-6.75c0-4.14-0.86-6.97-2.56-8.5c-1.71-1.53-4.86-2.29-9.44-2.29     c-7.38,0-15.51,1.39-24.42,4.18V88.63c3.32-1.71,7.51-3.08,12.54-4.11c5.04-1.03,10.16-1.55,15.38-1.55     c9.26,0,16.03,1.87,20.3,5.6c4.27,3.73,6.41,9.6,6.41,17.61v47.75H593.33z M577.01,142.86c2.25,0,4.56-0.5,6.95-1.49     c2.38-0.99,4.61-2.34,6.68-4.05v-11.74c-3.96-0.63-7.51-0.94-10.66-0.94c-7.82,0-11.73,3.15-11.73,9.44     c0,2.79,0.76,4.95,2.29,6.47C572.06,142.1,574.22,142.86,577.01,142.86z"></path>
			<path class="st2" d="M674,153.92l-1.62-6.07c-5.58,5.04-12.19,7.55-19.83,7.55c-5.67,0-10.66-1.41-14.98-4.25     c-4.32-2.83-7.67-6.95-10.05-12.34c-2.38-5.39-3.58-11.73-3.58-19.02c0-11.15,2.65-20.08,7.96-26.78     c5.3-6.7,12.32-10.05,21.04-10.05c7.1,0,13.27,2.02,18.48,6.07V54.09h19.7v99.83H674z M659.03,140.57     c4.32,0,8.45-1.26,12.41-3.78v-35.61c-3.87-2.25-8.32-3.37-13.36-3.37c-4.77,0-8.32,1.78-10.66,5.33     c-2.34,3.55-3.51,8.93-3.51,16.12c0,7.2,1.24,12.55,3.71,16.06C650.1,138.81,653.9,140.57,659.03,140.57z"></path>
			<path class="st2" d="M740.64,155.94c-10.7,0-19.07-3.21-25.09-9.65c-6.03-6.43-9.04-15.4-9.04-26.91     c0-11.42,3.01-20.35,9.04-26.78c6.02-6.43,14.39-9.65,25.09-9.65s19.07,3.22,25.09,9.65c6.02,6.43,9.04,15.36,9.04,26.78     c0,11.51-3.01,20.49-9.04,26.91C759.71,152.73,751.34,155.94,740.64,155.94z M740.64,140.84c9.44,0,14.17-7.15,14.17-21.45     c0-14.21-4.72-21.31-14.17-21.31c-9.44,0-14.16,7.1-14.16,21.31C726.48,133.69,731.2,140.84,740.64,140.84z"></path>
			<path class="st2" d="M790.15,153.92V84.99h16.19l2.43,10.25c3.6-3.96,6.99-6.77,10.19-8.43c3.19-1.66,6.59-2.49,10.19-2.49     c1.71,0,3.51,0.13,5.39,0.41v18.21c-2.52-0.54-5.31-0.81-8.36-0.81c-5.85,0-11.29,1.04-16.32,3.1v48.7H790.15z"></path>
		</g>
	</g>
</g>
</svg>
