<?xml version="1.0" encoding="UTF-8"?>
<!DOCTYPE svg PUBLIC "-//W3C//DTD SVG 1.1//EN" "http://www.w3.org/Graphics/SVG/1.1/DTD/svg11.dtd">
<svg xmlns="http://www.w3.org/2000/svg" version="1.1" width="90px" height="90px" style="shape-rendering:geometricPrecision; text-rendering:geometricPrecision; image-rendering:optimizeQuality; fill-rule:evenodd; clip-rule:evenodd" xmlns:xlink="http://www.w3.org/1999/xlink">
<g><path style="opacity:0.951" fill="#4fd84c" d="M -0.5,-0.5 C 29.5,-0.5 59.5,-0.5 89.5,-0.5C 89.5,6.5 89.5,13.5 89.5,20.5C 86.0359,17.5375 82.7025,14.3709 79.5,11C 56.5024,10.5 33.5024,10.3334 10.5,10.5C 10.3334,33.5024 10.5,56.5024 11,79.5C 14.3709,82.7025 17.5375,86.0359 20.5,89.5C 13.5,89.5 6.5,89.5 -0.5,89.5C -0.5,59.5 -0.5,29.5 -0.5,-0.5 Z"/></g>
<g><path style="opacity:0.906" fill="#4fd84c" d="M 29.5,19.5 C 33.1667,19.5 36.8333,19.5 40.5,19.5C 40.5,32.5 40.5,45.5 40.5,58.5C 43.8333,58.5 47.1667,58.5 50.5,58.5C 50.5,62.1667 50.5,65.8333 50.5,69.5C 40.1667,69.5 29.8333,69.5 19.5,69.5C 19.5,65.8333 19.5,62.1667 19.5,58.5C 22.8333,58.5 26.1667,58.5 29.5,58.5C 29.5,52.1667 29.5,45.8333 29.5,39.5C 26.1667,39.5 22.8333,39.5 19.5,39.5C 19.5,35.8333 19.5,32.1667 19.5,28.5C 22.8333,28.5 26.1667,28.5 29.5,28.5C 29.5,25.5 29.5,22.5 29.5,19.5 Z"/></g>
<g><path style="opacity:0.974" fill="#50d94b" d="M 58.5,29.5 C 62.1667,29.5 65.8333,29.5 69.5,29.5C 69.5,39.1667 69.5,48.8333 69.5,58.5C 72.8333,58.5 76.1667,58.5 79.5,58.5C 79.5,62.1667 79.5,65.8333 79.5,69.5C 72.5,69.5 65.5,69.5 58.5,69.5C 58.5,62.8333 58.5,56.1667 58.5,49.5C 55.5,49.5 52.5,49.5 49.5,49.5C 49.5,46.1667 49.5,42.8333 49.5,39.5C 52.5,39.5 55.5,39.5 58.5,39.5C 58.5,36.1667 58.5,32.8333 58.5,29.5 Z"/></g>
</svg>
